<svg version="1.1" xmlns="http://www.w3.org/2000/svg" xmlns:xlink="http://www.w3.org/1999/xlink" width="524" height="163" viewBox="0,0,524,163"><g transform="translate(14.5,-222.16666)"><g data-paper-data="{&quot;isPaintingLayer&quot;:true}" fill-rule="nonzero" stroke-linejoin="miter" stroke-miterlimit="10" stroke-dasharray="" stroke-dashoffset="0" style="mix-blend-mode: normal"><path d="M-3.5,384.16667v-157h489v157z" fill="#bf8600" stroke="#7bdc59" stroke-width="2" stroke-linecap="butt"/><path d="M-9.5,227.16667h514" fill="none" stroke="#39d700" stroke-width="10" stroke-linecap="round"/><g fill="none" stroke="#ad7c00" stroke-width="10" stroke-linecap="round"><g><path d="M22.5,287.5l-2,12l-12,1.33333"/><path d="M42.4,298.5l-2.6,15.6l-15.6,1.73333"/><path d="M53.5,318.5l-2,12l-12,1.33333"/><path d="M73.4,329.5l-2.6,15.6l-15.6,1.73333"/></g><g><path d="M60.5,257.5l-2,12l-12,1.33333"/><path d="M80.4,268.5l-2.6,15.6l-15.6,1.73333"/><path d="M91.5,288.5l-2,12l-12,1.33333"/><path d="M111.4,299.5l-2.6,15.6l-15.6,1.73333"/></g><g><path d="M129.5,271.5l-2,12l-12,1.33333"/><path d="M149.4,282.5l-2.6,15.6l-15.6,1.73333"/><path d="M160.5,302.5l-2,12l-12,1.33333"/><path d="M180.4,313.5l-2.6,15.6l-15.6,1.73333"/></g><g><path d="M167.5,241.5l-2,12l-12,1.33333"/><path d="M187.4,252.5l-2.6,15.6l-15.6,1.73333"/><path d="M198.5,272.5l-2,12l-12,1.33333"/><path d="M218.4,283.5l-2.6,15.6l-15.6,1.73333"/></g></g><g fill="none" stroke="#ad7c00" stroke-width="10" stroke-linecap="round"><g><path d="M255.5,289.5l-2,12l-12,1.33333"/><path d="M275.4,300.5l-2.6,15.6l-15.6,1.73333"/><path d="M286.5,320.5l-2,12l-12,1.33333"/><path d="M306.4,331.5l-2.6,15.6l-15.6,1.73333"/></g><g><path d="M293.5,259.5l-2,12l-12,1.33333"/><path d="M313.4,270.5l-2.6,15.6l-15.6,1.73333"/><path d="M324.5,290.5l-2,12l-12,1.33333"/><path d="M344.40001,301.5l-2.6,15.6l-15.6,1.73333"/></g><g><path d="M362.5,273.5l-2,12l-12,1.33333"/><path d="M382.40001,284.5l-2.6,15.6l-15.6,1.73333"/><path d="M393.5,304.5l-2,12l-12,1.33333"/><path d="M413.40001,315.5l-2.6,15.6l-15.6,1.73333"/></g><g><path d="M400.5,243.5l-2,12l-12,1.33333"/><path d="M420.40001,254.5l-2.6,15.6l-15.6,1.73333"/><path d="M431.5,274.5l-2,12l-12,1.33333"/><path d="M451.40001,285.5l-2.6,15.6l-15.6,1.73333"/></g></g></g></g></svg>