<svg version="1.1" xmlns="http://www.w3.org/2000/svg" xmlns:xlink="http://www.w3.org/1999/xlink" width="720" height="540" viewBox="0,0,720,540"><defs><clipPath id="clip-1"><rect x="-240" y="-180" transform="scale(0.5,0.5)" width="1440" height="1080" fill="none" fill-rule="nonzero" stroke-width="0.5"/></clipPath></defs><g transform="translate(120,90)"><g clip-path="url(#clip-1)" data-paper-data="{&quot;isPaintingLayer&quot;:true}" stroke="none" stroke-linecap="butt" stroke-linejoin="miter" stroke-miterlimit="10" stroke-dasharray="" stroke-dashoffset="0" style="mix-blend-mode: normal"><path d="M239.013,174.251l-11.908,-336.736h8.66z" fill="#cbc39d" fill-rule="evenodd" stroke-width="1"/><path d="M238.523,174.343l-41.215,-334.418l8.629,-0.754z" fill="#cbc39d" fill-rule="evenodd" stroke-width="1"/><path d="M238.038,174.478l-70.203,-329.555l8.53,-1.504z" fill="#cbc39d" fill-rule="evenodd" stroke-width="1"/><path d="M237.569,174.655l-98.66,-322.185l8.367,-2.241z" fill="#cbc39d" fill-rule="evenodd" stroke-width="1"/><path d="M237.118,174.872l-126.367,-312.361l8.139,-2.963z" fill="#cbc39d" fill-rule="evenodd" stroke-width="1"/><path d="M236.689,171.126l-153.114,-300.16l7.85,-3.66z" fill="#cbc39d" fill-rule="evenodd" stroke-width="1"/><path d="M236.28,175.417l-178.692,-285.674l7.501,-4.33z" fill="#cbc39d" fill-rule="evenodd" stroke-width="1"/><path d="M235.901,175.745l-202.913,-269.016l7.096,-4.968z" fill="#cbc39d" fill-rule="evenodd" stroke-width="1"/><path d="M235.55,176.103l-225.588,-250.307l6.635,-5.568z" fill="#cbc39d" fill-rule="evenodd" stroke-width="1"/><path d="M235.232,176.489l-246.547,-229.693l6.125,-6.125z" fill="#cbc39d" fill-rule="evenodd" stroke-width="1"/><path d="M234.948,176.903l-265.629,-207.332l5.568,-6.636z" fill="#cbc39d" fill-rule="evenodd" stroke-width="1"/><path d="M234.704,177.341l-282.693,-183.395l4.969,-7.095z" fill="#cbc39d" fill-rule="evenodd" stroke-width="1"/><path d="M234.497,177.796l-297.602,-158.057l4.331,-7.502z" fill="#cbc39d" fill-rule="evenodd" stroke-width="1"/><path d="M234.331,178.269l-310.248,-131.518l3.661,-7.852z" fill="#cbc39d" fill-rule="evenodd" stroke-width="1"/><path d="M234.206,178.755l-320.531,-103.979l2.962,-8.14z" fill="#cbc39d" fill-rule="evenodd" stroke-width="1"/><path d="M234.124,179.249l-328.376,-75.646l2.242,-8.368z" fill="#cbc39d" fill-rule="evenodd" stroke-width="1"/><path d="M234.087,179.749l-333.722,-46.74l1.504,-8.531z" fill="#cbc39d" fill-rule="evenodd" stroke-width="1"/><path d="M234.091,180.249l-336.527,-17.475l0.755,-8.628z" fill="#cbc39d" fill-rule="evenodd" stroke-width="1"/><path d="M234.142,180.747l-336.772,11.924l-0.001,-8.662z" fill="#cbc39d" fill-rule="evenodd" stroke-width="1"/><path d="M234.234,181.239l-334.454,41.231l-0.755,-8.629z" fill="#cbc39d" fill-rule="evenodd" stroke-width="1"/><path d="M234.368,181.724l-329.588,70.222l-1.505,-8.531z" fill="#cbc39d" fill-rule="evenodd" stroke-width="1"/><path d="M234.544,182.19l-322.214,98.686l-2.243,-8.369z" fill="#cbc39d" fill-rule="evenodd" stroke-width="1"/><path d="M234.761,182.644l-312.39,126.39l-2.963,-8.138z" fill="#cbc39d" fill-rule="evenodd" stroke-width="1"/><path d="M235.017,183.075l-300.187,153.139l-3.662,-7.852z" fill="#cbc39d" fill-rule="evenodd" stroke-width="1"/><path d="M235.308,183.481l-285.699,178.723l-4.332,-7.504z" fill="#cbc39d" fill-rule="evenodd" stroke-width="1"/><path d="M235.636,183.862l-269.039,202.944l-4.968,-7.096z" fill="#cbc39d" fill-rule="evenodd" stroke-width="1"/><path d="M235.993,184.212l-250.326,225.621l-5.57,-6.635z" fill="#cbc39d" fill-rule="evenodd" stroke-width="1"/><path d="M236.38,184.53l-229.71,246.582l-6.127,-6.125z" fill="#cbc39d" fill-rule="evenodd" stroke-width="1"/><path d="M236.794,184.813l-207.346,265.666l-6.637,-5.568z" fill="#cbc39d" fill-rule="evenodd" stroke-width="1"/><path d="M237.232,185.06l-183.404,282.728l-7.098,-4.969z" fill="#cbc39d" fill-rule="evenodd" stroke-width="1"/><path d="M237.689,185.265l-158.066,297.64l-7.503,-4.332z" fill="#cbc39d" fill-rule="evenodd" stroke-width="1"/><path d="M238.159,185.433l-131.521,310.285l-7.853,-3.66z" fill="#cbc39d" fill-rule="evenodd" stroke-width="1"/><path d="M238.646,185.556l-103.979,320.57l-8.142,-2.963z" fill="#cbc39d" fill-rule="evenodd" stroke-width="1"/><path d="M239.14,185.638l-75.643,328.414l-8.369,-2.24z" fill="#cbc39d" fill-rule="evenodd" stroke-width="1"/><path d="M239.64,185.675l-46.732,333.762l-8.532,-1.504z" fill="#cbc39d" fill-rule="evenodd" stroke-width="1"/><path d="M214.046,521.479l26.096,-335.808l-17.465,336.564z" fill="#cbc39d" fill-rule="evenodd" stroke-width="1"/><path d="M240.638,185.622l11.937,336.807l-8.664,0.002z" fill="#cbc39d" fill-rule="evenodd" stroke-width="1"/><path d="M241.132,185.528l41.246,334.489l-8.631,0.755z" fill="#cbc39d" fill-rule="evenodd" stroke-width="1"/><path d="M241.614,185.394l70.243,329.623l-8.532,1.504z" fill="#cbc39d" fill-rule="evenodd" stroke-width="1"/><path d="M242.083,185.218l98.705,322.246l-8.367,2.244z" fill="#cbc39d" fill-rule="evenodd" stroke-width="1"/><path d="M242.534,185.001l126.418,312.42l-8.14,2.963z" fill="#cbc39d" fill-rule="evenodd" stroke-width="1"/><path d="M242.966,184.745l153.166,300.215l-7.852,3.662z" fill="#cbc39d" fill-rule="evenodd" stroke-width="1"/><path d="M243.372,184.452l178.752,285.725l-7.502,4.334z" fill="#cbc39d" fill-rule="evenodd" stroke-width="1"/><path d="M243.753,184.126l202.975,269.061l-7.096,4.97z" fill="#cbc39d" fill-rule="evenodd" stroke-width="1"/><path d="M244.103,183.769l225.656,250.345l-6.637,5.571z" fill="#cbc39d" fill-rule="evenodd" stroke-width="1"/><path d="M244.421,183.382l246.617,229.726l-6.125,6.127z" fill="#cbc39d" fill-rule="evenodd" stroke-width="1"/><path d="M244.704,182.968l265.703,207.359l-5.568,6.639z" fill="#cbc39d" fill-rule="evenodd" stroke-width="1"/><path d="M244.95,182.53l282.766,183.414l-4.969,7.098z" fill="#cbc39d" fill-rule="evenodd" stroke-width="1"/><path d="M245.157,182.075l297.678,158.071l-4.332,7.503z" fill="#cbc39d" fill-rule="evenodd" stroke-width="1"/><path d="M245.323,181.603l310.325,131.525l-3.661,7.853z" fill="#cbc39d" fill-rule="evenodd" stroke-width="1"/><path d="M245.446,181.116l320.61,103.979l-2.963,8.142z" fill="#cbc39d" fill-rule="evenodd" stroke-width="1"/><path d="M245.528,180.622l328.454,75.641l-2.241,8.369z" fill="#cbc39d" fill-rule="evenodd" stroke-width="1"/><path d="M245.568,180.122l333.796,46.727l-1.502,8.531z" fill="#cbc39d" fill-rule="evenodd" stroke-width="1"/><path d="M245.562,179.62l336.601,17.455l-0.754,8.633z" fill="#cbc39d" fill-rule="evenodd" stroke-width="1"/><path d="M245.513,179.122l336.844,-11.949l0.002,8.664z" fill="#cbc39d" fill-rule="evenodd" stroke-width="1"/><path d="M245.421,178.63l334.523,-41.264l0.756,8.633z" fill="#cbc39d" fill-rule="evenodd" stroke-width="1"/><path d="M245.284,178.147l329.657,-70.261l1.505,8.531z" fill="#cbc39d" fill-rule="evenodd" stroke-width="1"/><path d="M245.109,177.679l322.279,-98.729l2.244,8.369z" fill="#cbc39d" fill-rule="evenodd" stroke-width="1"/><path d="M244.892,177.226l312.449,-126.442l2.965,8.143z" fill="#cbc39d" fill-rule="evenodd" stroke-width="1"/><path d="M244.636,176.796l300.242,-153.195l3.664,7.853z" fill="#cbc39d" fill-rule="evenodd" stroke-width="1"/><path d="M244.345,176.388l285.75,-178.78l4.332,7.502z" fill="#cbc39d" fill-rule="evenodd" stroke-width="1"/><path d="M244.017,176.009l269.084,-203.008l4.97,7.098z" fill="#cbc39d" fill-rule="evenodd" stroke-width="1"/><path d="M243.659,175.657l250.366,-225.687l5.572,6.636z" fill="#cbc39d" fill-rule="evenodd" stroke-width="1"/><path d="M243.273,175.339l229.744,-246.652l6.127,6.126z" fill="#cbc39d" fill-rule="evenodd" stroke-width="1"/><path d="M242.859,175.056l207.373,-265.739l6.638,5.571z" fill="#cbc39d" fill-rule="evenodd" stroke-width="1"/><path d="M242.423,174.812l183.422,-282.805l7.099,4.969z" fill="#cbc39d" fill-rule="evenodd" stroke-width="1"/><path d="M241.966,174.603l158.078,-297.715l7.504,4.332z" fill="#cbc39d" fill-rule="evenodd" stroke-width="1"/><path d="M241.493,174.438l131.53,-310.363l7.853,3.662z" fill="#cbc39d" fill-rule="evenodd" stroke-width="1"/><path d="M241.007,174.313l103.978,-320.646l8.145,2.963z" fill="#cbc39d" fill-rule="evenodd" stroke-width="1"/><path d="M324.521,-152.019l-84.008,326.25l75.637,-328.49z" fill="#cbc39d" fill-rule="evenodd" stroke-width="1"/><path d="M240.013,174.194l46.719,-333.836l8.535,1.504z" fill="#cbc39d" fill-rule="evenodd" stroke-width="1"/><path d="M265.589,-161.687l-26.078,335.887l17.445,-336.64z" fill="#cbc39d" fill-rule="evenodd" stroke-width="1"/></g></g></svg>